#!OML:ASF C:\Vicon Data\Big\jianyuan-13\jianyuan\Session 1\Capture.male.ASF
:FULLY-SPECIFIED
:DEGREES
237
root -7.799481 17.585397 -13.657735 11.762921 4.923408 0.966798
lowerback -8.015677 -1.454800 -1.780735 
upperback -0.013419 -1.828587 0.629884 
thorax 4.559178 -0.963753 1.436667 
lowerneck -10.417949 -1.312560 3.983644 
upperneck 12.831285 -2.066024 -3.657013 
head 5.498829 -1.147455 -1.965125 
rclavicle 0.000000 0.000000 
rhumerus -42.513931 -21.853566 -76.117481 
rradius 27.058940 
rwrist 31.779198 
rhand -20.337952 -14.700930 
rfingers 0.000000 
rthumb 6.013562 -44.595594 
lclavicle 0.000000 0.000000 
lhumerus -21.502577 15.929324 88.141949 
lradius 32.314652 
lwrist -42.880724 
lhand -24.963144 -0.252347 
lfingers 0.000000 
lthumb 1.547142 29.721742 
rfemur -35.013920 6.848484 16.792783 
rtibia 27.781980 
rfoot -15.431464 -6.676491 
rtoes -21.346012 
lfemur -12.768001 -8.398061 -21.289670 
ltibia 10.262786 
lfoot -10.282254 4.501304 
ltoes -17.271622 
238
root -7.803044 17.586935 -13.615082 11.781908 4.938489 0.993194
lowerback -8.083513 -1.469875 -1.829572 
upperback 0.004008 -1.843696 0.650052 
thorax 4.618367 -0.973068 1.481352 
lowerneck -10.409220 -1.322436 3.908848 
upperneck 12.868632 -2.070392 -3.647399 
head 5.509746 -1.153269 -1.950708 
rclavicle 0.000000 0.000000 
rhumerus -42.577486 -22.069843 -75.894081 
rradius 26.912509 
rwrist 32.179997 
rhand -20.364654 -14.616781 
rfingers 0.000000 
rthumb 5.987732 -44.512167 
lclavicle 0.000000 0.000000 
lhumerus -21.293836 15.374852 88.323993 
lradius 32.524936 
lwrist -42.400463 
lhand -25.149388 -0.273361 
lfingers 0.000000 
lthumb 1.367280 29.701958 
rfemur -34.931215 6.983111 16.699290 
rtibia 27.220104 
rfoot -15.563674 -6.831105 
rtoes -21.610554 
lfemur -12.473622 -8.409261 -21.316240 
ltibia 9.966237 
lfoot -10.288497 4.538084 
ltoes -17.638778 
239
root -7.806569 17.589981 -13.574263 11.795645 4.983547 1.001480
lowerback -8.093509 -1.463666 -1.832777 
upperback -0.014568 -1.835251 0.641939 
thorax 4.604087 -0.968870 1.475759 
lowerneck -10.364573 -1.353010 3.850841 
upperneck 12.930238 -2.113281 -3.586249 
head 5.521146 -1.173758 -1.925622 
rclavicle 0.000000 0.000000 
rhumerus -42.719250 -22.183572 -75.753841 
rradius 26.847303 
rwrist 32.319753 
rhand -20.192226 -14.589301 
rfingers 0.000000 
rthumb 6.154200 -44.479841 
lclavicle 0.000000 0.000000 
lhumerus -21.120992 14.839292 88.456897 
lradius 32.685874 
lwrist -41.948591 
lhand -25.327285 -0.322695 
lfingers 0.000000 
lthumb 1.195440 29.653642 
rfemur -34.845866 7.077182 16.649451 
rtibia 26.728569 
rfoot -15.662313 -6.964500 
rtoes -22.297361 
lfemur -12.189956 -8.445595 -21.317140 
ltibia 9.679753 
lfoot -10.304210 4.611015 
ltoes -18.195311 
240
root -7.810214 17.592192 -13.533121 11.778611 5.038379 0.988269
lowerback -8.062580 -1.469454 -1.808720 
upperback -0.040392 -1.846459 0.642079 
thorax 4.559442 -0.973618 1.462128 
lowerneck -10.294391 -1.368529 3.795453 
upperneck 12.988147 -2.135652 -3.528817 
head 5.527802 -1.184578 -1.900259 
rclavicle 0.000000 0.000000 
rhumerus -42.875781 -22.287571 -75.594073 
rradius 26.778980 
rwrist 32.477590 
rhand -20.038182 -14.536783 
rfingers 0.000000 
rthumb 6.302931 -44.422943 
lclavicle 0.000000 0.000000 
lhumerus -20.989111 14.421617 88.553767 
lradius 32.837799 
lwrist -41.655142 
lhand -25.478143 -0.363993 
lfingers 0.000000 
lthumb 1.049763 29.613128 
rfemur -34.728749 7.215105 16.603201 
rtibia 26.274140 
rfoot -15.828211 -7.115005 
rtoes -22.211178 
lfemur -11.890029 -8.486034 -21.297362 
ltibia 9.428470 
lfoot -10.297722 4.638630 
ltoes -18.470244 
241
root -7.813955 17.593764 -13.491507 11.744797 5.095290 0.965440
lowerback -8.015354 -1.480443 -1.773099 
upperback -0.067620 -1.866088 0.645777 
thorax 4.504265 -0.982215 1.445088 
lowerneck -10.211104 -1.377471 3.747428 
upperneck 13.042364 -2.149132 -3.479538 
head 5.531262 -1.191388 -1.877794 
rclavicle 0.000000 0.000000 
rhumerus -43.034805 -22.389186 -75.429338 
rradius 26.704090 
rwrist 32.631443 
rhand -19.938965 -14.484820 
rfingers 0.000000 
rthumb 6.398736 -44.368136 
lclavicle 0.000000 0.000000 
lhumerus -20.880806 14.075600 88.627764 
lradius 32.986150 
lwrist -41.481055 
lhand -25.613420 -0.399145 
lfingers 0.000000 
lthumb 0.919156 29.578593 
rfemur -34.594765 7.372822 16.561177 
rtibia 25.854296 
rfoot -16.025118 -7.276376 
rtoes -21.707860 
lfemur -11.586881 -8.526037 -21.269365 
ltibia 9.209269 
lfoot -10.283584 4.638971 
ltoes -18.594066 
242
root -7.817780 17.594863 -13.448429 11.732380 5.126902 0.969550
lowerback -8.030837 -1.475442 -1.775236 
upperback -0.075290 -1.858986 0.638377 
thorax 4.504498 -0.978736 1.439188 
lowerneck -10.150244 -1.406176 3.731354 
upperneck 13.089622 -2.189954 -3.462530 
head 5.534552 -1.212111 -1.872869 
rclavicle 0.000000 0.000000 
rhumerus -43.151921 -22.514202 -75.310505 
rradius 26.603665 
rwrist 32.693951 
rhand -20.081909 -14.531117 
rfingers 0.000000 
rthumb 6.260751 -44.418554 
lclavicle 0.000000 0.000000 
lhumerus -20.751050 13.689562 88.708474 
lradius 33.148396 
lwrist -41.384408 
lhand -25.762752 -0.429849 
lfingers 0.000000 
lthumb 0.774928 29.548438 
rfemur -34.485480 7.476606 16.529580 
rtibia 25.490307 
rfoot -16.142990 -7.434576 
rtoes -21.767140 
lfemur -11.327164 -8.547963 -21.273143 
ltibia 9.038925 
lfoot -10.310235 4.656240 
ltoes -18.927694 
243
root -7.822083 17.595010 -13.406454 11.752676 5.180831 0.980287
lowerback -8.117211 -1.490324 -1.806149 
upperback -0.055657 -1.875072 0.655697 
thorax 4.575818 -0.988217 1.470180 
lowerneck -10.157675 -1.414334 3.695639 
upperneck 13.152498 -2.197786 -3.465257 
head 5.555532 -1.218987 -1.869584 
rclavicle 0.000000 0.000000 
rhumerus -43.166474 -22.554305 -75.251160 
rradius 26.514528 
rwrist 32.572418 
rhand -20.223683 -14.551997 
rfingers 0.000000 
rthumb 6.123869 -44.443452 
lclavicle 0.000000 0.000000 
lhumerus -20.541123 13.368541 88.836075 
lradius 33.281170 
lwrist -41.218298 
lhand -25.890715 -0.430387 
lfingers 0.000000 
lthumb 0.651307 29.548319 
rfemur -34.407687 7.517842 16.519947 
rtibia 25.165117 
rfoot -16.253288 -7.581988 
rtoes -21.790145 
lfemur -11.135558 -8.591774 -21.264896 
ltibia 8.915468 
lfoot -10.309566 4.662518 
ltoes -19.072029 
244
root -7.826644 17.594688 -13.364716 11.788388 5.236617 0.993955
lowerback -8.233293 -1.511852 -1.847826 
upperback -0.028359 -1.898861 0.683181 
thorax 4.672879 -1.002109 1.515989 
lowerneck -10.186292 -1.417143 3.631955 
upperneck 13.220098 -2.194473 -3.466178 
head 5.582354 -1.221656 -1.860667 
rclavicle 0.000000 0.000000 
rhumerus -43.151595 -22.585312 -75.188429 
rradius 26.418207 
rwrist 32.494920 
rhand -20.334765 -14.547156 
rfingers 0.000000 
rthumb 6.016619 -44.441720 
lclavicle 0.000000 0.000000 
lhumerus -20.302442 13.085705 88.981577 
lradius 33.385292 
lwrist -41.000617 
lhand -26.035643 -0.437447 
lfingers 0.000000 
lthumb 0.511302 29.541632 
rfemur -34.345657 7.523990 16.524859 
rtibia 24.871356 
rfoot -16.334437 -7.708777 
rtoes -21.666922 
lfemur -10.981777 -8.637865 -21.254660 
ltibia 8.831420 
lfoot -10.316727 4.658458 
ltoes -19.175408 
245
root -7.831361 17.594208 -13.322159 11.827283 5.266100 1.007640
lowerback -8.344116 -1.526356 -1.883098 
upperback -0.015506 -1.914304 0.708189 
thorax 4.751348 -1.011680 1.556937 
lowerneck -10.185401 -1.432209 3.504833 
upperneck 13.280554 -2.202417 -3.432510 
head 5.602698 -1.230601 -1.830850 
rclavicle 0.000000 0.000000 
rhumerus -43.188884 -22.709720 -75.028172 
rradius 26.281872 
rwrist 32.829484 
rhand -20.346623 -14.494651 
rfingers 0.000000 
rthumb 6.005206 -44.389489 
lclavicle 0.000000 0.000000 
lhumerus -20.085636 12.834011 89.117843 
lradius 33.438003 
lwrist -40.714239 
lhand -26.267391 -0.509758 
lfingers 0.000000 
lthumb 0.287496 29.469729 
rfemur -34.289725 7.505593 16.545697 
rtibia 24.624597 
rfoot -16.330735 -7.783422 
rtoes -21.115551 
lfemur -10.853462 -8.659669 -21.255345 
ltibia 8.808862 
lfoot -10.389316 4.636366 
ltoes -19.419015 
